<svg height="512pt" viewBox="-74 0 511 512" width="512pt" xmlns="http://www.w3.org/2000/svg"><path d="m361.460938 69.332031-115.628907 69.335938h-170.664062l-71.46875-71.46875c.640625-.851563 1.28125-1.277344 1.921875-1.707031l106.664062-64c1.707032-1.066407 3.628906-1.492188 5.546875-1.492188h170.667969c2.773438 0 5.546875 1.066406 7.464844 3.199219l64 64c.640625.640625 1.28125 1.28125 1.496094 2.132812zm0 0" fill="#26c6da"/><path d="m75.167969 138.667969v373.332031c-2.773438 0-5.546875-1.066406-7.46875-3.199219l-64-64c-2.132813-1.921875-3.199219-4.695312-3.199219-7.46875v-362.664062c0-2.988281 1.066406-5.546875 2.988281-7.46875h.210938zm0 0" fill="#00bcd4"/><path d="m363.167969 74.667969v362.664062c0 3.839844-1.921875 7.253907-5.121094 9.175781l-106.667969 64c-1.707031 1.066407-3.625 1.492188-5.546875 1.492188v-373.332031l115.628907-69.335938c1.277343 1.707031 1.707031 3.414063 1.707031 5.335938zm0 0" fill="#00bcd4"/><path d="m75.167969 138.667969h170.664062v373.332031h-170.664062zm0 0" fill="#4dd0e1"/><path d="m245.832031 149.332031h-170.664062c-2.839844 0-5.546875-1.128906-7.554688-3.113281l-64-64c-2.324219-2.324219-3.433593-5.589844-3.027343-8.851562.40625-3.265626 2.261718-6.167969 5.097656-7.851563l106.667968-64c1.640626-1.003906 3.539063-1.515625 5.480469-1.515625h170.667969c2.835938 0 5.546875 1.128906 7.550781 3.113281l64 64c2.328125 2.328125 3.4375 5.589844 3.050781 8.855469-.382812 3.261719-2.28125 6.164062-5.117187 7.851562l-106.667969 64c-1.644531 1-3.542968 1.511719-5.484375 1.511719zm-166.25-21.332031h163.285157l92.417968-55.445312-51.199218-51.222657h-163.289063l-92.414063 55.445313zm0 0"/><path d="m245.832031 512h-170.664062c-2.839844 0-5.546875-1.128906-7.554688-3.113281l-64-64c-1.984375-2.007813-3.113281-4.714844-3.113281-7.554688v-362.664062c0-5.890625 4.777344-10.667969 10.667969-10.667969 5.886719 0 10.664062 4.777344 10.664062 10.667969v358.25l57.75 57.75h163.285157l98.964843-59.371094v-356.628906c0-5.890625 4.78125-10.667969 10.667969-10.667969s10.667969 4.777344 10.667969 10.667969v362.664062c0 3.757813-1.964844 7.210938-5.183594 9.152344l-106.667969 64c-1.644531 1.003906-3.542968 1.515625-5.484375 1.515625zm0 0"/><path d="m75.167969 512c-5.890625 0-10.667969-4.777344-10.667969-10.667969v-362.664062c0-5.890625 4.777344-10.667969 10.667969-10.667969 5.886719 0 10.664062 4.777344 10.664062 10.667969v362.664062c0 5.890625-4.777343 10.667969-10.664062 10.667969zm0 0"/><path d="m245.832031 512c-5.886719 0-10.664062-4.777344-10.664062-10.667969v-362.664062c0-5.890625 4.777343-10.667969 10.664062-10.667969 5.890625 0 10.667969 4.777344 10.667969 10.667969v362.664062c0 5.890625-4.777344 10.667969-10.667969 10.667969zm0 0"/></svg>