<svg height="512pt" viewBox="0 0 512 512" width="512pt" xmlns="http://www.w3.org/2000/svg"><path d="m512 256c0 141.386719-114.613281 256-256 256s-256-114.613281-256-256 114.613281-256 256-256 256 114.613281 256 256zm0 0" fill="#ffc107"/><path d="m256 512c-141.164062 0-256-114.835938-256-256s114.835938-256 256-256 256 114.835938 256 256-114.835938 256-256 256zm0-490.667969c-129.386719 0-234.667969 105.28125-234.667969 234.667969s105.28125 234.667969 234.667969 234.667969 234.667969-105.28125 234.667969-234.667969-105.28125-234.667969-234.667969-234.667969zm0 0"/><path d="m10.667969 266.667969c-5.890625 0-10.667969-4.78125-10.667969-10.667969 0-5.824219 2.199219-11.390625 6.507812-16.492188 3.816407-4.476562 10.515626-5.011718 15.039063-1.257812 4.5 3.820312 5.054687 10.539062 1.257813 15.039062-.960938 1.089844-1.472657 2.09375-1.472657 2.710938 0 5.886719-4.777343 10.667969-10.664062 10.667969zm0 0"/><path d="m52.332031 236.90625c-4.503906 0-8.683593-2.878906-10.15625-7.402344-1.8125-5.609375 1.28125-11.625 6.871094-13.417968 6.570313-2.132813 13.78125-4.117188 21.566406-6.015626 5.675781-1.386718 11.476563 2.132813 12.886719 7.828126 1.40625 5.695312-2.113281 11.476562-7.832031 12.886718-7.253907 1.769532-13.949219 3.648438-20.050781 5.609375-1.089844.363281-2.199219.511719-3.285157.511719zm406.824219-.128906c-1.066406 0-2.175781-.167969-3.242188-.488282-6.101562-1.964843-12.820312-3.820312-20.074218-5.570312-5.738282-1.363281-9.257813-7.144531-7.871094-12.882812 1.363281-5.71875 6.953125-9.195313 12.882812-7.875 7.808594 1.878906 15.019532 3.90625 21.589844 5.976562 5.613282 1.789062 8.707032 7.785156 6.914063 13.417969-1.472657 4.523437-5.675781 7.421875-10.199219 7.421875zm-343.550781-13.867188c-5.183594 0-9.726563-3.796875-10.515625-9.085937-.875-5.804688 3.113281-11.242188 8.957031-12.117188 6.976563-1.066406 14.230469-2.070312 21.738281-2.964843 5.78125-.8125 11.160156 3.433593 11.882813 9.300781.726562 5.867187-3.453125 11.15625-9.300781 11.882812-7.296876.894531-14.335938 1.855469-21.140626 2.878907-.535156.066406-1.089843.105468-1.621093.105468zm280.257812-.0625c-.535156 0-1.109375-.042968-1.644531-.128906-6.785156-1.042969-13.804688-1.984375-21.078125-2.878906-5.824219-.703125-10.003906-6.015625-9.300781-11.882813.703125-5.824219 6.164062-10.089843 11.882812-9.300781 7.488282.894531 14.742188 1.878906 21.761719 2.964844 5.800781.894531 9.8125 6.335937 8.914063 12.160156-.832032 5.3125-5.375 9.066406-10.535157 9.066406zm-215.765625-6.910156c-5.546875 0-10.21875-4.289062-10.625-9.921875-.425781-5.867187 4.011719-10.984375 9.898438-11.390625 7.144531-.492188 14.421875-.941406 21.824218-1.300781 6.65625-.8125 10.902344 4.242187 11.15625 10.132812.300782 5.886719-4.246093 10.898438-10.132812 11.15625-7.230469.363281-14.378906.789063-21.355469 1.300781-.234375.023438-.488281.023438-.765625.023438zm151.273438-.042969c-.257813 0-.492188 0-.746094-.023437-6.957031-.46875-14.101562-.917969-21.378906-1.277344-5.863282-.277344-10.410156-5.269531-10.132813-11.160156.300781-5.867188 4.671875-10.859375 11.160157-10.132813 7.402343.363281 14.675781.789063 21.78125 1.28125 5.867187.40625 10.300781 5.503907 9.917968 11.371094-.363281 5.632813-5.054687 9.941406-10.601562 9.941406zm-86.464844-2.496093c-5.824219 0-10.601562-4.695313-10.667969-10.539063-.0625-5.890625 4.652344-10.730469 10.539063-10.796875l11.222656-.0625 10.601562.042969c5.890626.042969 10.644532 4.84375 10.605469 10.730469-.042969 5.867187-4.824219 10.601562-10.667969 10.601562-.023437 0-.042968 0-.0625 0l-10.476562-.042969-10.964844.066407c-.042968 0-.085937 0-.128906 0zm0 0"/><path d="m501.332031 266.667969c-5.886719 0-10.664062-4.78125-10.664062-10.667969 0-.617188-.511719-1.621094-1.453125-2.710938-3.816406-4.5-3.242188-11.21875 1.261718-15.039062 4.519532-3.773438 11.242188-3.21875 15.039063 1.257812 4.285156 5.101563 6.484375 10.667969 6.484375 16.492188 0 5.886719-4.777344 10.667969-10.667969 10.667969zm0 0"/><path d="m256 320c-88.535156 0-256-13.375-256-64 0-5.886719 4.777344-10.667969 10.667969-10.667969 5.886719 0 10.664062 4.78125 10.664062 10.667969 0 14.484375 82.839844 42.667969 234.667969 42.667969s234.667969-28.183594 234.667969-42.667969c0-5.886719 4.777343-10.667969 10.664062-10.667969 5.890625 0 10.667969 4.78125 10.667969 10.667969 0 50.625-167.464844 64-256 64zm0 0"/><path d="m265.601562 25.324219c-2.433593 0-4.886718-.832031-6.890624-2.519531-1.066407-.9375-2.09375-1.472657-2.710938-1.472657-5.886719 0-10.667969-4.777343-10.667969-10.664062 0-5.890625 4.78125-10.667969 10.667969-10.667969 5.761719 0 11.457031 2.238281 16.492188 6.507812 4.5 3.816407 5.054687 10.539063 1.257812 15.039063-2.113281 2.472656-5.121094 3.777344-8.148438 3.777344zm0 0"/><path d="m285.886719 469.824219c-1.066407 0-2.175781-.171875-3.242188-.492188-5.609375-1.789062-8.703125-7.785156-6.910156-13.417969 1.960937-6.101562 3.816406-12.820312 5.566406-20.074218 1.386719-5.71875 6.890625-9.171875 12.886719-7.871094 5.738281 1.363281 9.257812 7.144531 7.871094 12.882812-1.878906 7.808594-3.902344 15.019532-5.972656 21.589844-1.472657 4.503906-5.675782 7.382813-10.199219 7.382813zm13.953125-63.316407c-.53125 0-1.109375-.042968-1.640625-.128906-5.804688-.894531-9.816407-6.335937-8.917969-12.160156 1.042969-6.785156 1.984375-13.804688 2.878906-21.078125.703125-5.824219 6.25-9.984375 11.882813-9.300781 5.824219.703125 10.003906 6.015625 9.300781 11.882812-.894531 7.488282-1.878906 14.742188-2.964844 21.761719-.832031 5.246094-5.375 9.023437-10.539062 9.023437zm6.953125-64.492187c-.253907 0-.488281 0-.746094-.019531-5.867187-.40625-10.304687-5.503906-9.917969-11.371094.46875-6.957031.917969-14.101562 1.277344-21.378906.300781-5.863282 4.566406-10.941406 11.160156-10.132813 5.867188.277344 10.410156 5.269531 10.132813 11.160157-.363281 7.402343-.789063 14.675781-1.28125 21.78125-.40625 5.652343-5.078125 9.960937-10.625 9.960937zm2.496093-64.808594c-.019531 0-.042968 0-.0625 0-5.886718-.042969-10.644531-4.84375-10.601562-10.730469l.042969-10.476562-.066407-10.964844c-.0625-5.886718 4.652344-10.730468 10.539063-10.796875 5.804687-.082031 10.730469 4.652344 10.796875 10.539063l.0625 11.222656-.042969 10.601562c-.042969 5.867188-4.820312 10.605469-10.667969 10.605469zm-1.277343-64.832031c-5.675781 0-10.367188-4.4375-10.644531-10.15625-.363282-7.230469-.792969-14.378906-1.304688-21.355469-.425781-5.867187 4.011719-10.984375 9.898438-11.390625 5.335937-.554687 10.988281 4.011719 11.394531 9.898438.488281 7.144531.9375 14.421875 1.300781 21.800781.296875 5.890625-4.246094 10.902344-10.132812 11.160156-.171876.042969-.34375.042969-.511719.042969zm-5.355469-64.640625c-5.3125 0-9.921875-3.992187-10.558594-9.367187-.898437-7.296876-1.859375-14.335938-2.882812-21.140626-.875-5.800781 3.117187-11.242187 8.960937-12.117187 5.632813-.832031 11.242188 3.113281 12.117188 8.960937 1.066406 6.976563 2.070312 14.226563 2.964843 21.738282.703126 5.84375-3.457031 11.15625-9.300781 11.882812-.425781.019532-.875.042969-1.300781.042969zm-11.09375-63.914063c-4.820312 0-9.171875-3.265624-10.347656-8.152343-1.769532-7.253907-3.648438-13.949219-5.609375-20.050781-1.8125-5.613282 1.28125-11.628907 6.871093-13.417969 5.628907-1.792969 11.601563 1.277343 13.417969 6.867187 2.132813 6.570313 4.117188 13.78125 6.015625 21.566406 1.386719 5.71875-2.113281 11.480469-7.832031 12.886719-.832031.191407-1.683594.300781-2.515625.300781zm0 0"/><path d="m256 512c-5.886719 0-10.667969-4.777344-10.667969-10.667969 0-5.886719 4.78125-10.664062 10.667969-10.664062.617188 0 1.644531-.535157 2.710938-1.453125 4.519531-3.773438 11.242187-3.21875 15.039062 1.261718 3.816406 4.5 3.242188 11.21875-1.257812 15.039063-5.035157 4.246094-10.730469 6.484375-16.492188 6.484375zm0 0"/><path d="m256 512c-50.625 0-64-167.464844-64-256s13.375-256 64-256c5.886719 0 10.667969 4.777344 10.667969 10.667969 0 5.886719-4.78125 10.664062-10.667969 10.664062-14.484375 0-42.667969 82.839844-42.667969 234.667969s28.183594 234.667969 42.667969 234.667969c5.886719 0 10.667969 4.777343 10.667969 10.664062 0 5.890625-4.78125 10.667969-10.667969 10.667969zm0 0"/></svg>